<svg xmlns="http://www.w3.org/2000/svg" xmlns:svg="http://www.w3.org/2000/svg" id="svg8" width="90mm" height="90mm" version="1.1" viewBox="0 0 90 90"><metadata id="metadata5"/><g id="layer1"><g id="g1582" transform="rotate(90,45,45)"><circle style="fill:none;stroke:#fff;stroke-width:8.99999;stroke-linecap:round;stroke-linejoin:round;stroke-miterlimit:4;stroke-dasharray:none;stroke-opacity:1" id="path833-2" cx="45" cy="45" r="40.5"/><path style="fill:none;stroke:gray;stroke-width:9.012;stroke-linecap:butt;stroke-linejoin:round;stroke-miterlimit:4;stroke-dasharray:none;stroke-opacity:1" id="path833-2-1" d="M 52.866247,5.2712678 A 40.5,40.5 0 0 1 67.349754,11.225179"/><path style="fill:none;stroke:gray;stroke-width:9.012;stroke-linecap:butt;stroke-linejoin:round;stroke-miterlimit:4;stroke-dasharray:none;stroke-opacity:1" id="path833-2-1-8" d="m -37.133753,-84.728732 a 40.5,40.5 0 0 1 14.483507,5.953911" transform="scale(-1)"/><path style="fill:none;stroke:gray;stroke-width:9.012;stroke-linecap:butt;stroke-linejoin:round;stroke-miterlimit:4;stroke-dasharray:none;stroke-opacity:1" id="path833-2-1-7" d="m 52.866247,-84.728732 a 40.5,40.5 0 0 1 14.483507,5.953911" transform="rotate(90)"/><path style="fill:none;stroke:gray;stroke-width:9.012;stroke-linecap:butt;stroke-linejoin:round;stroke-miterlimit:4;stroke-dasharray:none;stroke-opacity:1" id="path833-2-1-8-6" d="m -37.133753,5.2712678 a 40.5,40.5 0 0 1 14.483507,5.9539112" transform="rotate(-90)"/></g><path style="fill:none;stroke:gray;stroke-width:9.012;stroke-linecap:butt;stroke-linejoin:round;stroke-miterlimit:4;stroke-dasharray:none;stroke-opacity:1" id="path833-2-1-78" d="m 7.8662466,-103.36834 a 40.5,40.5 0 0 1 14.4835074,5.953909" transform="rotate(135)"/><path style="fill:none;stroke:gray;stroke-width:9.012;stroke-linecap:butt;stroke-linejoin:round;stroke-miterlimit:4;stroke-dasharray:none;stroke-opacity:1" id="path833-2-1-8-2" d="M 7.8662465,23.910878 A 40.5,40.5 0 0 1 22.349754,29.86479" transform="rotate(-45)"/><path style="fill:none;stroke:gray;stroke-width:9.012;stroke-linecap:butt;stroke-linejoin:round;stroke-miterlimit:4;stroke-dasharray:none;stroke-opacity:1" id="path833-2-1-7-8" d="m -55.773364,-39.728732 a 40.5,40.5 0 0 1 14.483507,5.953911" transform="rotate(-135)"/><path style="fill:none;stroke:gray;stroke-width:9.012;stroke-linecap:butt;stroke-linejoin:round;stroke-miterlimit:4;stroke-dasharray:none;stroke-opacity:1" id="path833-2-1-8-6-7" d="m 71.505857,-39.728732 a 40.5,40.5 0 0 1 14.483507,5.953911" transform="rotate(45)"/></g></svg>